<svg width="78" height="78" viewBox="0 0 78 78" fill="none" xmlns="http://www.w3.org/2000/svg">
<g filter="url(#filter0_dd_334_728)">
<g clip-path="url(#clip0_334_728)">
<g clip-path="url(#clip1_334_728)">
<path d="M32 42H33.425L43.2 32.225L41.775 30.8L32 40.575V42ZM30 44V39.75L43.2 26.575C43.4 26.3917 43.6208 26.25 43.8625 26.15C44.1042 26.05 44.3583 26 44.625 26C44.8917 26 45.15 26.05 45.4 26.15C45.65 26.25 45.8667 26.4 46.05 26.6L47.425 28C47.625 28.1833 47.7708 28.4 47.8625 28.65C47.9542 28.9 48 29.15 48 29.4C48 29.6667 47.9542 29.9208 47.8625 30.1625C47.7708 30.4042 47.625 30.625 47.425 30.825L34.25 44H30ZM42.475 31.525L41.775 30.8L43.2 32.225L42.475 31.525Z" fill="#E8EAED"/>
<g filter="url(#filter1_d_334_728)">
<path d="M30 26L48 44" stroke="#E8EAED" stroke-width="2" stroke-linecap="round"/>
</g>
</g>
</g>
<rect x="12" y="8" width="54" height="54" rx="15" stroke="#EDEBE2" stroke-width="2"/>
</g>
<defs>
<filter id="filter0_dd_334_728" x="0" y="0" width="78" height="78" filterUnits="userSpaceOnUse" color-interpolation-filters="sRGB">
<feFlood flood-opacity="0" result="BackgroundImageFix"/>
<feColorMatrix in="SourceAlpha" type="matrix" values="0 0 0 0 0 0 0 0 0 0 0 0 0 0 0 0 0 0 127 0" result="hardAlpha"/>
<feOffset dy="1"/>
<feGaussianBlur stdDeviation="1.5"/>
<feColorMatrix type="matrix" values="0 0 0 0 0 0 0 0 0 0 0 0 0 0 0 0 0 0 0.3 0"/>
<feBlend mode="normal" in2="BackgroundImageFix" result="effect1_dropShadow_334_728"/>
<feColorMatrix in="SourceAlpha" type="matrix" values="0 0 0 0 0 0 0 0 0 0 0 0 0 0 0 0 0 0 127 0" result="hardAlpha"/>
<feMorphology radius="3" operator="dilate" in="SourceAlpha" result="effect2_dropShadow_334_728"/>
<feOffset dy="4"/>
<feGaussianBlur stdDeviation="4"/>
<feColorMatrix type="matrix" values="0 0 0 0 0 0 0 0 0 0 0 0 0 0 0 0 0 0 0.15 0"/>
<feBlend mode="normal" in2="effect1_dropShadow_334_728" result="effect2_dropShadow_334_728"/>
<feBlend mode="normal" in="SourceGraphic" in2="effect2_dropShadow_334_728" result="shape"/>
</filter>
<filter id="filter1_d_334_728" x="25" y="25" width="28" height="28" filterUnits="userSpaceOnUse" color-interpolation-filters="sRGB">
<feFlood flood-opacity="0" result="BackgroundImageFix"/>
<feColorMatrix in="SourceAlpha" type="matrix" values="0 0 0 0 0 0 0 0 0 0 0 0 0 0 0 0 0 0 127 0" result="hardAlpha"/>
<feOffset dy="4"/>
<feGaussianBlur stdDeviation="2"/>
<feComposite in2="hardAlpha" operator="out"/>
<feColorMatrix type="matrix" values="0 0 0 0 0 0 0 0 0 0 0 0 0 0 0 0 0 0 0.25 0"/>
<feBlend mode="normal" in2="BackgroundImageFix" result="effect1_dropShadow_334_728"/>
<feBlend mode="normal" in="SourceGraphic" in2="effect1_dropShadow_334_728" result="shape"/>
</filter>
<clipPath id="clip0_334_728">
<rect x="11" y="7" width="56" height="56" rx="16" fill="white"/>
</clipPath>
<clipPath id="clip1_334_728">
<rect width="24" height="24" fill="white" transform="translate(27 23)"/>
</clipPath>
</defs>
</svg>
