<svg width="252" height="437" viewBox="0 0 252 437" fill="none" xmlns="http://www.w3.org/2000/svg">
<path d="M237.111 1H14.8886C7.21813 1 1 7.21813 1 14.8886V422.773C1 430.444 7.21813 436.662 14.8886 436.662H237.111C244.782 436.662 251 430.444 251 422.773V14.8886C251 7.21813 244.782 1 237.111 1Z" fill="#EDEBE2" stroke="#2A2A2A" stroke-width="0.427734" stroke-miterlimit="10" stroke-linecap="round" stroke-dasharray="0.14 1.71"/>
<path d="M36.466 27.4535C56.4817 27.4479 76.4975 27.4423 96.5133 27.4368C96.5119 28.9999 96.6233 31.1482 97.1193 33.6462C97.4927 35.5242 98.4651 40.1732 101.777 44.9796C102.657 46.2586 107.788 53.4738 117.319 56.2226C121.044 57.2967 124.179 57.3218 125.632 57.3232C131.084 57.3274 135.121 55.9398 136.169 55.5622C144.412 52.5878 149.005 46.6849 150.553 44.4837C153.037 40.952 154.304 37.5457 154.978 35.1633C155.58 32.5344 155.836 30.0378 155.844 27.6931C155.844 27.6123 155.844 27.5329 155.844 27.4521H215.534C215.534 27.4521 215.864 33.9011 219.337 37.5387C222.809 41.1763 229.424 41.5065 229.424 41.5065V410.223H22.5774V41.6722C24.0667 41.6137 26.4393 41.3253 28.9985 40.0757C30.2886 39.446 31.2513 38.7549 31.7306 38.3704C35.8418 35.0769 36.3754 28.823 36.466 27.4535Z" stroke="#2A2A2A" stroke-width="0.427734" stroke-miterlimit="10"/>
<path d="M94.4597 41.7155L33.1167 64.5329" stroke="#2A2A2A" stroke-width="0.142578" stroke-miterlimit="10"/>
<path d="M100.411 52.1322L50.147 94.4597" stroke="#2A2A2A" stroke-width="0.142578" stroke-miterlimit="10"/>
<path d="M109.34 59.4073L76.6021 116.451" stroke="#2A2A2A" stroke-width="0.142578" stroke-miterlimit="10"/>
<path d="M120.087 63.3754L108.514 128.356" stroke="#2A2A2A" stroke-width="0.142578" stroke-miterlimit="10"/>
<path d="M157.54 41.7156L218.883 64.533" stroke="#2A2A2A" stroke-width="0.142578" stroke-miterlimit="10"/>
<path d="M151.588 52.1322L201.853 94.4597" stroke="#2A2A2A" stroke-width="0.142578" stroke-miterlimit="10"/>
<path d="M142.659 59.4073L175.398 116.451" stroke="#2A2A2A" stroke-width="0.142578" stroke-miterlimit="10"/>
<path d="M131.913 63.3754L143.486 128.356" stroke="#2A2A2A" stroke-width="0.142578" stroke-miterlimit="10"/>
<path d="M175.272 324.156L135.425 392.94" stroke="#2A2A2A" stroke-width="0.142578" stroke-miterlimit="10"/>
<path d="M201.561 346.147L145.841 392.94" stroke="#2A2A2A" stroke-width="0.142578" stroke-miterlimit="10"/>
<path d="M218.427 375.744L171.469 393.931" stroke="#2A2A2A" stroke-width="0.142578" stroke-miterlimit="10"/>
<path d="M143.196 312.251L128.811 392.94" stroke="#2A2A2A" stroke-width="0.142578" stroke-miterlimit="10"/>
<path d="M76.0322 324.328L115.88 393.111" stroke="#2A2A2A" stroke-width="0.142578" stroke-miterlimit="10"/>
<path d="M49.7417 346.32L105.463 393.111" stroke="#2A2A2A" stroke-width="0.142578" stroke-miterlimit="10"/>
<path d="M32.8772 375.917L79.8342 394.103" stroke="#2A2A2A" stroke-width="0.142578" stroke-miterlimit="10"/>
<path d="M108.109 312.424L122.493 393.111" stroke="#2A2A2A" stroke-width="0.142578" stroke-miterlimit="10"/>
<path d="M124.729 321.236L125.795 392.83" stroke="#2A2A2A" stroke-width="0.427734" stroke-linecap="round" stroke-linejoin="round" stroke-dasharray="0.14 1.71"/>
<path d="M158.366 35.403L211.538 46.2126" stroke="#2A2A2A" stroke-width="0.427734" stroke-linecap="round" stroke-linejoin="round" stroke-dasharray="0.14 1.71"/>
<path d="M154.666 46.8146L201.853 73.9899" stroke="#2A2A2A" stroke-width="0.427734" stroke-linecap="round" stroke-linejoin="round" stroke-dasharray="0.14 1.71"/>
<path d="M147.41 55.7599L179.24 94.4596" stroke="#2A2A2A" stroke-width="0.427734" stroke-linecap="round" stroke-linejoin="round" stroke-dasharray="0.14 1.71"/>
<path d="M137.7 61.8386L155.321 111.028" stroke="#2A2A2A" stroke-width="0.427734" stroke-linecap="round" stroke-linejoin="round" stroke-dasharray="0.14 1.71"/>
<path d="M92.8548 36.1774L39.6829 46.9884" stroke="#2A2A2A" stroke-width="0.427734" stroke-linecap="round" stroke-linejoin="round" stroke-dasharray="0.14 1.71"/>
<path d="M96.5551 47.5903L49.3682 74.7656" stroke="#2A2A2A" stroke-width="0.427734" stroke-linecap="round" stroke-linejoin="round" stroke-dasharray="0.14 1.71"/>
<path d="M103.811 56.5344L71.9795 95.2355" stroke="#2A2A2A" stroke-width="0.427734" stroke-linecap="round" stroke-linejoin="round" stroke-dasharray="0.14 1.71"/>
<path d="M113.521 62.6143L95.9004 111.803" stroke="#2A2A2A" stroke-width="0.427734" stroke-linecap="round" stroke-linejoin="round" stroke-dasharray="0.14 1.71"/>
<path d="M126.196 64.5328L125.803 118.791" stroke="#2A2A2A" stroke-width="0.427734" stroke-linecap="round" stroke-linejoin="round" stroke-dasharray="0.14 1.71"/>
<path d="M94.9155 327.239L119.055 392.431" stroke="#2A2A2A" stroke-width="0.427734" stroke-linecap="round" stroke-linejoin="round" stroke-dasharray="0.14 1.71"/>
<path d="M68.2944 342.498L109.347 392.431" stroke="#2A2A2A" stroke-width="0.427734" stroke-linecap="round" stroke-linejoin="round" stroke-dasharray="0.14 1.71"/>
<path d="M47.8191 365.442L96.4298 397.024" stroke="#2A2A2A" stroke-width="0.427734" stroke-linecap="round" stroke-linejoin="round" stroke-dasharray="0.14 1.71"/>
<path d="M156.93 327.239L132.789 392.431" stroke="#2A2A2A" stroke-width="0.427734" stroke-linecap="round" stroke-linejoin="round" stroke-dasharray="0.14 1.71"/>
<path d="M183.551 342.498L142.498 392.431" stroke="#2A2A2A" stroke-width="0.427734" stroke-linecap="round" stroke-linejoin="round" stroke-dasharray="0.14 1.71"/>
<path d="M204.026 365.443L155.416 397.024" stroke="#2A2A2A" stroke-width="0.427734" stroke-linecap="round" stroke-linejoin="round" stroke-dasharray="0.14 1.71"/>
<path d="M212.474 395.124L172.958 401.703" stroke="#2A2A2A" stroke-width="0.427734" stroke-linecap="round" stroke-linejoin="round" stroke-dasharray="0.14 1.71"/>
<path d="M38.085 395.124L77.6024 401.703" stroke="#2A2A2A" stroke-width="0.427734" stroke-linecap="round" stroke-linejoin="round" stroke-dasharray="0.14 1.71"/>
</svg>
