<svg width="102" height="106" viewBox="0 0 102 106" fill="none" xmlns="http://www.w3.org/2000/svg">
<path d="M93.5672 94.2825C93.2715 94.3068 92.3847 94.3982 91.6747 93.865C91.3821 93.6456 91.1566 93.347 90.992 92.9752C90.4709 91.7807 89.4987 90.8574 89.1026 89.6476C87.5057 84.7812 83.9493 80.9143 82.2274 76.1363C81.4473 73.9728 80.1795 72.0226 79.7468 69.6945C79.3049 67.3177 78.9605 64.8586 77.4337 62.823C77.4002 62.7773 77.3758 62.7194 77.3575 62.6646C76.94 61.4548 77.647 60.7083 78.4363 59.9678C79.3201 59.142 79.8869 60.0379 80.3471 60.4401C81.1212 61.1227 81.7093 62.0247 82.3585 62.8474C83.4434 64.2186 85.4425 64.7428 87.0973 64.1486C88.0329 63.8103 88.8984 63.8621 89.6206 64.7397C90.7909 66.1658 92.1531 65.983 92.5523 64.1882C93.0491 61.9637 94.0365 59.9129 94.521 57.6946C95.161 54.7662 92.2415 50.2868 89.261 50.4178C86.9175 50.5184 84.6441 48.5468 82.3006 50.2472C82.1604 50.3508 81.8312 50.2655 81.6179 50.1893C80.4385 49.7566 79.6553 49.9638 79.5639 51.3899C79.5456 51.7098 79.378 51.9567 79.0245 51.9445C78.7746 51.9353 78.6283 51.7555 78.5704 51.4965C78.3327 50.4788 77.7964 49.4336 77.8908 48.4463C78.3723 43.3605 76.1385 38.6921 75.8033 33.7526C75.6631 31.6805 75.0719 29.6053 75.5808 27.5241C75.8581 26.3844 76.1019 25.2722 76.0928 24.0807C76.0654 20.674 75.8856 17.2611 76.2909 13.8695C76.4097 12.8731 76.3823 11.703 77.4428 11.0722C78.5308 10.4262 79.2226 9.4267 79.9357 8.43635C80.2496 8.25352 80.3867 7.96708 80.3989 7.6197C80.3989 7.58618 80.213 7.49781 80.1429 7.52219C79.7071 7.66541 78.2626 8.69841 78.2047 7.74463C78.1529 6.9097 78.0493 6.04429 78.5338 5.27334C78.6923 4.993 78.9148 4.56944 79.1251 4.03008C79.3231 3.5212 79.6188 2.6436 79.503 2.58875C79.3932 2.53694 78.9666 3.21952 78.6466 3.72536C78.3906 4.13064 78.1986 4.47497 78.0737 4.70961C77.9823 4.9351 77.7445 4.99909 77.6257 4.92291C77.5282 4.86197 77.4855 4.69133 77.5526 4.52678C77.644 4.18853 77.7324 3.85334 77.8238 3.5151C77.9335 3.32617 78.0767 3.04888 78.1956 2.70149C78.4607 1.91531 78.5064 1.04076 78.3662 1.00115C78.2504 0.970677 77.9914 1.54965 77.6409 2.32973C77.4642 2.72282 77.2326 3.09154 77.0558 3.48463C76.9674 3.6827 76.9065 3.82287 76.7541 3.90514C76.4494 4.06969 76.2086 3.77411 75.8947 3.90514C75.6966 3.98742 75.7484 4.12759 75.3005 4.7736C75.0688 5.10879 74.9561 5.21849 74.8464 5.29772C74.6422 5.45008 74.438 5.52017 74.2978 5.55673C74.1881 5.79746 74.0754 6.04124 73.9656 6.28197C73.987 7.65931 73.99 9.92034 73.8133 12.6994C73.2525 21.5485 71.101 23.5262 71.4941 31.1655C71.6526 34.2432 71.3113 37.3209 71.7654 40.4138C71.9238 41.4895 72.8259 42.6383 72.0793 43.7566C71.3905 44.7896 70.01 44.7591 69.0683 45.4417C68.6021 45.783 68.0566 45.6398 67.5385 45.7007C65.6368 45.9293 63.659 45.9262 61.8579 46.4839C59.5327 47.2061 57.1069 47.4224 54.7969 48.2878C53.3981 48.8119 52.045 49.5737 50.5731 49.8693C47.556 50.4727 44.5847 51.14 41.6896 52.2583C39.5228 53.0933 37.1885 53.1329 34.9516 52.2004C29.719 50.0186 24.2275 48.8058 18.6383 48.1294C15.1063 47.7027 13.1986 49.589 13.9665 52.8983C14.7894 56.4452 16.8738 59.5503 18.5347 62.7712C20.1469 65.9007 21.5091 69.1094 22.2344 72.5132C22.978 76.0144 21.7956 79.3663 20.7289 82.6787C20.3053 83.9951 19.6227 85.3907 19.7568 86.6766C19.8482 87.5694 19.644 87.9168 19.1381 88.3587C17.1542 90.0804 15.2038 91.8447 13.1986 93.5267C11.6931 94.7883 10.7453 96.7416 8.80408 97.4058C5.21413 98.64 3.37649 101.651 1.30114 104.451C0.712974 105.246 1.03601 105.542 1.84055 105.441C3.38868 105.246 4.93071 104.993 6.46055 104.686C6.97253 104.582 7.57898 104.158 7.39309 103.598C7.02129 102.479 7.92335 102.141 8.44143 101.608C11.0318 98.9356 14.5273 97.6405 17.6052 95.7116C20.2078 94.0813 22.8287 92.573 24.8309 90.1413C28.2776 85.9575 31.8462 81.8803 36.8593 79.4334C37.4749 79.1348 37.996 78.6198 38.5141 78.1536C41.6622 75.3379 45.5995 73.4517 48.1625 69.9474C48.2265 69.856 48.3393 69.7798 48.4459 69.7463C50.4359 69.1064 51.7128 67.4822 52.9471 66.0287C54.672 64.0023 56.8783 63.3929 59.2127 63.3502C61.3338 63.3106 63.464 63.8835 65.5911 64.1729C66.7918 64.3375 67.9834 64.4685 69.0866 65.078C71.1223 66.2024 73.0666 67.1866 73.862 69.792C74.3679 71.4436 74.9591 73.3237 76.1659 74.6401C78.031 76.6787 78.799 79.3481 80.5726 81.4628C82.0324 83.1967 82.9375 85.4333 83.9188 87.5268C85.4425 90.769 88.5906 92.7284 90.282 95.8244C90.4678 96.1626 90.8427 96.1809 90.9829 96.254C92.1866 96.8787 93.3904 96.9549 95.3652 96.833C96.6573 96.7538 98.2938 96.5862 100.186 96.2296C100.458 95.7969 100.729 95.3642 101 94.9346C97.1175 94.3739 94.774 94.1819 93.5641 94.2764L93.5672 94.2825ZM35.8994 66.0561C34.7535 68.8748 32.6507 70.956 30.7918 73.2384C30.4261 73.6863 30.0604 74.1343 29.6825 74.6036C27.5553 73.5614 26.6076 71.9799 26.4125 69.4812C26.1961 66.7631 25.2362 64.0998 24.5657 61.4244C24.3615 60.6168 24.3676 59.8337 24.5474 58.6392C27.4395 61.915 31.4135 62.2471 34.8114 63.7768C35.9786 64.304 36.454 64.6879 35.8994 66.0561Z" stroke="#2A2A2A"/>
</svg>
