<svg width="102" height="105" viewBox="0 0 102 105" fill="none" xmlns="http://www.w3.org/2000/svg">
<path d="M36.4048 9.7439C36.6944 9.77246 36.9105 10.2376 37.3468 11.1679C37.7302 11.988 37.9463 12.7101 38.0768 13.2365C38.0768 14.8114 38.1013 16.0517 38.1176 16.8351C38.1624 18.7732 38.2114 19.6137 37.7261 20.597C37.3754 21.311 36.886 21.7965 36.5353 22.0903C36.5353 23.5591 36.621 25.7828 37.0736 28.4389C37.8688 33.0943 39.0188 34.4897 40.1933 39.4144C41.2984 44.0535 41.4452 47.6929 41.4738 48.6966C41.6043 53.1644 40.9803 56.8609 40.3809 59.4028C41.8041 59.8761 43.2314 60.3535 44.6546 60.8268C43.8431 63.5686 43.0357 66.3145 42.2241 69.0564C42.791 69.4807 43.6433 70.109 44.6954 70.8435C50.2619 74.7195 50.5474 74.0178 53.2266 76.2169C55.0944 77.7511 57.1701 79.1995 59.2417 80.5582C59.5965 80.7907 60.0247 81.1049 60.4569 80.7459C60.8444 80.4235 60.8362 79.9584 60.6649 79.5137C60.2408 78.412 60.196 77.2329 59.6862 76.1149C57.2842 70.8516 56.2647 65.1599 54.8089 59.6028C54.5683 58.6888 54.8741 57.6729 55.4206 56.8609C57.2027 54.2252 62.2554 52.9563 65.1548 54.4006C66.5454 55.0902 67.9156 55.8164 69.2818 56.5508C70.1952 57.0405 70.7458 56.9548 71.0802 55.8246C72.4708 51.1529 73.8981 46.4934 75.6924 41.9563C75.8025 41.6829 75.9534 41.3892 75.9453 41.1077C75.721 35.3792 78.3146 30.3484 79.7786 25.0239C80.5697 22.1352 80.7573 19.0506 80.4637 15.9987C80.3821 15.1378 80.0518 14.4197 79.489 13.7995C77.7437 11.8778 75.9738 9.97646 74.2325 8.05066C72.6176 6.26357 70.9089 4.68457 68.3438 4.39896C67.1857 4.27248 66.3497 3.39118 66.3945 2.32627C66.4353 1.32665 67.4956 1.09 68.458 1.0696C72.3199 0.996158 76.2103 0.67791 79.8479 2.44051C80.896 2.94645 82.0174 2.96277 83.1266 2.86892C85.6591 2.65676 88.0039 3.55846 90.2468 4.39488C91.9555 5.03138 90.6628 6.72054 90.357 7.83441C89.7004 10.209 88.2772 12.2654 87.8082 14.791C86.907 19.6708 86.1117 24.5547 86.7601 29.4916C87.4534 34.7713 87.0089 39.8265 85.0351 44.7797C84.3052 46.6158 84.0197 48.5579 82.7759 50.2675C80.9245 52.8012 82.1153 55.8409 82.0623 58.6643C82.0623 58.852 82.4619 59.0642 82.7025 59.2274C82.9472 59.3906 83.2327 59.4967 83.4896 59.6476C85.6713 60.9043 88.8807 61.247 89.8839 63.4013C90.7892 65.3475 88.8481 67.8527 88.3546 70.1621C88.11 71.3045 88.1181 72.3612 88.9256 73.2752C89.6474 74.0953 90.2591 74.1483 91.1195 73.2548C93.864 70.411 96.4699 67.5426 97.0857 63.3932C97.1713 62.822 97.8075 62.2916 98.2724 61.8305C98.8025 61.3042 99.5121 61.3817 100.165 61.5735C100.858 61.7775 100.523 62.3772 100.629 62.8464C101.853 68.2893 99.6752 73.471 99.4346 78.7956C99.3408 80.856 99.0227 82.9165 98.6843 84.9524C98.5619 85.6828 98.5456 86.6294 97.5302 86.9272C96.4699 87.2373 92.0004 85.6461 91.3071 84.6954C89.9124 82.79 87.3392 82.4065 85.9201 80.4725C85.5367 79.9502 85.0148 80.4766 84.9332 81.1172C84.8435 81.8352 85.2309 82.3616 85.5367 82.9654C87.5757 86.9966 88.738 91.2644 86.6052 95.5158C84.3745 99.9631 80.2353 102.611 75.5619 103.309C71.7694 103.876 67.8667 104.333 63.964 104.435C57.9571 104.59 52.4192 102.897 47.0321 100.575C39.7284 97.4253 33.4686 92.7781 28.2733 86.7273C27.9022 86.2948 27.5841 85.7195 27.478 85.1646C26.6257 80.8315 23.3389 78.0367 18.9468 78.004C15.0564 77.9714 11.1415 78.5304 7.28372 77.6327C4.60038 77.0085 2.85499 75.0419 2.45535 72.3653C2.39825 71.9981 2.45535 71.5207 2.25145 71.2841C0.224672 69.0033 1.03212 66.4002 2.07201 64.299C3.22201 61.9692 4.81244 59.7211 6.97379 58.0564C7.9362 57.3138 8.80074 57.4362 9.35127 58.5338C10.2077 60.2433 11.5738 60.8554 13.3844 60.5616C13.5475 60.533 14.1307 60.582 14.6649 60.5493C17.5807 60.3861 19.7053 58.8969 20.2559 59.5334C20.4802 59.7904 20.1172 60.023 20.2763 60.5534C20.6107 61.6714 22.719 62.4017 25.541 63.3401C26.4626 63.6461 26.4789 64.3112 26.2098 65.1435C25.8835 66.1554 25.908 67.1102 26.5442 68.1098C27.4536 69.5378 28.0204 70.2518 28.5791 70.2437C29.2683 70.2314 29.8922 69.4072 30.5162 68.0935C31.3114 66.4125 32.388 63.3809 32.4247 58.5542C32.1392 56.4856 31.9516 54.674 31.8211 53.1888C31.6091 50.7571 31.5234 48.9006 31.4623 47.4808C31.4623 47.4808 31.0259 44.69 31.3236 42.2501C31.8538 37.9415 32.1882 33.637 32.0128 29.2346C31.7967 23.7958 31.2013 23.5632 31.5928 19.1404C31.9231 15.4316 32.8569 11.2005 33.4442 11.2372C33.5665 11.2454 33.6603 11.4412 33.7786 11.686C34.2312 12.6326 33.8479 13.5914 33.958 13.6322C34.1782 13.7098 35.4343 9.62966 36.4048 9.73166V9.7439Z" stroke="#2A2A2A"/>
</svg>
