<svg width="102" height="106" viewBox="0 0 102 106" fill="none" xmlns="http://www.w3.org/2000/svg">
<path d="M25.78 12.7225C24.3915 13.0934 23.973 13.0363 23.8938 12.8778C23.7163 12.5133 25.3235 11.5971 25.1048 11.0011C25.0509 10.8522 24.9082 10.7951 23.2471 10.2625C22.5529 10.0406 22.2137 9.93601 22.0869 9.62217C21.9759 9.35272 22.0647 9.05156 22.1756 8.80747C22.5465 7.98325 22.9142 7.66941 23.9445 7.78037C26.9529 8.10371 29.3241 9.84407 31.4576 11.5686C34.84 14.298 38.736 16.4315 41.5383 19.8678C41.5764 19.9153 41.6239 19.9534 41.6683 19.9978C44.5435 22.9142 44.1505 24.3693 40.2291 25.39C38.0386 25.9606 35.8513 26.2428 33.5847 25.7673C32.5481 25.5485 31.6826 25.6975 32.4878 27.1336C32.6844 27.4823 32.7921 27.98 32.7192 28.3636C32.0408 31.8253 34.3265 34.1838 35.8925 36.7801C36.6913 38.102 37.5599 37.9435 38.3841 36.3553C39.9121 33.4071 41.3323 30.3987 43.3453 27.7359C44.6038 26.0716 45.5928 24.1601 47.3649 22.9428C49.2986 21.6145 51.8442 22.0139 53.182 23.8969C56.5707 28.6742 59.9373 33.4673 63.2469 38.2985C65.729 41.9219 68.655 45.0095 72.1928 47.7041C74.415 49.3969 76.9669 50.0309 79.281 51.3053C79.8073 51.5969 80.0704 51.9456 80.4001 52.3767C81.7537 54.1456 83.2753 55.7243 85.7353 55.7053C86.5436 55.699 86.9779 55.9874 87.1396 56.78C87.295 57.5439 86.8607 57.8229 86.2742 58.1526C83.0471 59.969 79.6678 60.2892 76.1237 59.3001C73.4957 58.5679 70.8677 57.8071 68.1224 57.6802C66.7688 57.6168 66.3662 56.8814 66.585 55.6546C66.7435 54.7606 66.7783 53.8159 67.1048 52.9886C68.0749 50.5254 66.7371 48.9055 65.0665 47.5583C60.6823 44.03 56.2791 40.5302 52.1992 36.6501C51.0644 35.5723 50.5508 36.0002 50.1831 37.2048C49.3208 40.0484 48.8073 42.9712 48.281 45.8908C48.1352 46.7023 48.3508 47.3078 49.2384 47.8023C52.1422 49.4191 55.2108 50.7632 57.8451 52.8491C60.6506 55.0649 63.3166 57.3728 65.6086 60.1878C67.4599 62.4575 69.1083 64.9714 71.6634 66.68C72.6429 67.3331 73.2357 68.636 73.8729 69.7201C78.0194 76.7513 82.5145 83.5574 87.2632 90.1892C88.0621 91.3082 89.1463 92.2275 89.9229 93.4005C90.5791 94.3895 91.8376 94.6431 92.6809 95.3215C93.9394 96.3359 95.1599 97.4201 95.8985 99.1192C96.6434 100.834 98.368 102.09 100.115 103.012C100.73 103.339 101.091 103.668 100.98 104.401C100.872 105.098 100.394 105.244 99.8072 105.295C97.138 105.523 94.5258 105.545 92.1578 103.922C89.7232 102.254 86.886 101.503 84.1122 100.682C82.4162 100.181 82.1341 99.4299 82.952 97.9241C83.5226 96.8685 83.9379 95.7019 84.2485 94.5385C84.6131 93.1722 83.5733 92.2973 82.7713 91.4572C80.5808 89.1716 78.3142 86.9589 76.0666 84.7272C73.4228 82.1024 71.1308 79.2113 69.7075 75.7464C68.4997 72.8046 65.7988 71.3305 63.5734 69.4729C60.5492 66.9495 56.856 65.4088 53.4229 63.4878C50.2528 61.7126 46.8545 61.0659 43.3611 60.5999C42.9554 60.546 42.4767 60.5745 42.1185 60.7457C37.7913 62.7967 34.6244 60.3146 31.3403 58.0638C28.7091 56.2569 28.2558 53.1946 26.918 50.6744C25.1079 47.2603 22.5972 44.5625 19.5603 42.3562C17.6329 40.9582 16.3237 38.885 14.1744 37.7691C13.5467 37.4426 12.9444 36.7071 12.2565 37.0717C11.594 37.4236 11.6542 38.3144 11.613 39.0498C11.4703 41.5225 11.3974 44.0173 10.8332 46.4329C10.3989 48.2905 10.8617 49.8502 11.7652 51.4543C13.5721 54.675 15.2649 57.9592 17.0084 61.2149C18.118 63.2881 19.5952 64.2803 22.2042 64.4008C22.9618 64.4356 24.3788 64.2518 25.9575 65.8019C26.5123 66.344 23.805 65.4786 23.6275 67.1619C23.5546 67.8498 27.2509 70.9089 26.861 71.5397C26.3886 72.2974 25.3108 71.8916 24.5278 71.5873C21.4433 70.389 18.8154 68.3697 17.037 65.7163C14.447 61.852 11.5116 58.2287 9.0928 54.2344C7.12419 50.9851 6.31266 47.4758 6.29998 43.862C6.28095 39.3224 5.61524 34.7861 6.16366 30.2402C6.40459 28.2431 7.10517 26.5217 8.54121 25.0921C10.345 23.2978 10.4781 21.9442 8.77262 20.096C7.46339 18.679 6.09075 17.3254 4.51523 16.1366C0.926728 13.4611 0.0739824 10.4337 2.01089 6.07171C2.25498 5.52012 2.76853 5.32674 3.17747 5.37746C4.74031 5.57084 5.46625 4.59446 6.36021 3.56419C8.36368 1.25956 13.4389 -0.23988 15.9718 2.39761C17.1035 3.57687 18.1275 4.9717 18.4508 6.49015C18.958 8.86453 20.3687 10.9377 20.4353 13.4611C20.4765 15.0969 21.0851 16.7136 18.8946 17.43C18.3684 17.6012 18.3272 18.1496 18.5174 18.6759C18.7425 19.3067 19.1229 19.7156 19.8266 19.7568C21.5384 19.8583 23.2566 19.8076 24.8353 19.1133C27.0956 18.1179 29.21 18.5744 31.3403 19.481C31.8919 19.7156 32.4688 19.9375 33.0553 20.0453C33.8414 20.1911 34.7988 20.7839 35.3726 19.8044C35.9051 18.8978 34.9383 18.2986 34.4786 17.8073C33.1345 16.3681 31.5907 15.1191 30.1737 13.7496C29.8567 13.4453 29.5936 13.3819 29.2702 13.2329C27.9166 12.6115 26.6074 12.6337 25.7831 12.7288L25.78 12.7225Z" stroke="#2A2A2A"/>
</svg>
