<svg width="31" height="37" viewBox="0 0 31 37" fill="none" xmlns="http://www.w3.org/2000/svg">
<path d="M13.25 36.3C11.8833 36.0667 10.5833 35.7 9.35 35.2C8.11667 34.7 6.96667 34.05 5.9 33.25L6.7 32.45C7.73333 33.1833 8.79167 33.775 9.875 34.225C10.9583 34.675 12.0833 34.9833 13.25 35.15V36.3ZM17.4 36.3V35.25C20.9 34.6167 23.8083 32.9667 26.125 30.3C28.4417 27.6333 29.6 24.5 29.6 20.9C29.6 16.9333 28.2167 13.5583 25.45 10.775C22.6833 7.99167 19.3 6.6 15.3 6.6H13.2L17.95 11.35L17.15 12.15L11.05 6.05L17.15 0L17.95 0.75L13.2 5.5H15.3C17.4333 5.5 19.4333 5.90833 21.3 6.725C23.1667 7.54167 24.8 8.64167 26.2 10.025C27.6 11.4083 28.7 13.0417 29.5 14.925C30.3 16.8083 30.7 18.8 30.7 20.9C30.7 24.8333 29.4417 28.25 26.925 31.15C24.4083 34.05 21.2333 35.7667 17.4 36.3ZM3.05 30.35C2.25 29.2833 1.59167 28.125 1.075 26.875C0.558333 25.625 0.2 24.3333 0 23H1.1C1.3 24.2 1.625 25.35 2.075 26.45C2.525 27.55 3.11667 28.5833 3.85 29.55L3.05 30.35ZM0 18.85C0.2 17.4167 0.566667 16.0833 1.1 14.85C1.63333 13.6167 2.28333 12.5 3.05 11.5L3.85 12.3C3.11667 13.3 2.525 14.35 2.075 15.45C1.625 16.55 1.3 17.6833 1.1 18.85H0Z" fill="#E8EAED"/>
</svg>
