<svg width="150" height="132" viewBox="0 0 150 132" fill="none" xmlns="http://www.w3.org/2000/svg">
<path d="M111 3L40 3.5L2 63.5L38.5 129L111 128L147 66.5L111 3Z" fill="#2A2A2A"/>
<path d="M37.9242 2.1831L40.2846 0.860039L52.5929 0.682023L64.5078 0.724519L80.8454 0.356031L92.1464 0.225634L105.462 0L111.726 0.107694L112.954 0.453478L150 66.5452L149.136 69.6147L143.127 79.1868L137.511 88.5384L124.016 110.579L118.4 119.931L113.524 127.834L112.219 130.117L110.252 131.219L99.3441 131.129L63.5994 131.002L55.3203 130.989L44.4127 130.899L38.1483 130.791L36.9205 130.446L0.0952365 64.7473L0 62.7327L7.14133 51.4918L13.323 41.3058L22.1632 27.5616L28.3448 17.3756L34.1806 8.41747L37.9242 2.1831ZM43.7175 5.13985L43.5446 5.75377L49.9395 17.1624L54.1416 16.3581L85.4285 7.61018L92.605 5.65562L93.9581 4.38017L82.6571 4.51057L67.7202 4.61093L53.3973 4.88418L44.1109 4.91934L43.7175 5.13985ZM39.3901 7.56547L32.2488 18.8064L26.24 28.3784L19.665 38.7849L13.4834 48.9709L13.1376 50.1987L16.0643 48.0413L46.6193 19.5404L39.7835 7.34496L39.3901 7.56547ZM54.3321 20.3873L59.3386 23.7851L67.2418 28.6612L78.2622 35.4092L121.73 62.228L122.737 62.1804L120.372 50.5812L112.393 14.2101L110.832 6.81312L109.729 4.84611L102.946 6.58016L63.0822 17.5507L55.5123 19.7258L54.3321 20.3873ZM46.0706 25.018L26.3404 43.3153L5.0842 63.5019L7.24169 66.4286L28.388 86.6299L42.9842 100.68L47.2039 104.518L47.7226 102.677L47.6222 87.7398L47.4113 32.0216L47.4713 24.7499L46.0706 25.018ZM51.0596 23.7726L51.1599 38.7095L51.2127 52.639L51.3131 67.5759L51.2706 79.4908L51.4486 91.7991L51.4361 100.078L51.7218 106.122L121.748 66.8712L115.072 62.3408L79.5077 40.3981L66.8184 32.5176L54.9636 25.2034L51.8464 23.3316L51.0596 23.7726ZM10.6922 75.3516L38.256 124.527L41.6538 119.52L46.8757 110.389L46.8281 109.382L22.2965 85.9083L11.0856 75.1311L10.6922 75.3516ZM116.518 16.0343L122.715 44.615L127.082 64.3979L129.538 65.0895L140.446 65.1796L144.475 64.9891L116.911 15.8138L116.518 16.0343ZM54.8866 109.001L58.7906 110.432L65.7642 112.727L75.8073 115.887L93.4379 121.515L102.867 124.501L108.613 126.451L109.745 124.782L111.081 118.863L112.291 114.566L113.281 109.875L114.664 104.964L115.654 100.273L117.037 95.3617L118.027 90.6709L119.41 85.7596L120.4 81.0688L121.783 76.1575L122.772 71.4667L122.552 71.0733L54.8866 109.001ZM49.9929 112.261L45.5102 119.944L41.7666 126.178L44.2223 126.87L58.1518 126.817L70.6806 127.032L82.9889 126.854L91.8819 127.04L95.5177 127.07L96.084 126.235L91.1727 124.852L86.6548 123.249L81.7435 121.865L77.2256 120.262L72.9282 119.052L68.4103 117.448L64.1129 116.238L59.595 114.634L54.6837 113.251L50.7797 111.82L49.9929 112.261ZM127.1 69.0411L122.354 88.2453L115.754 115.21L116.761 115.162L123.509 104.142L129.125 94.7903L135.873 83.7699L141.488 74.4183L144.099 69.8528L144.051 68.8455L131.129 68.8506L127.887 68.6001L127.1 69.0411Z" fill="#EDEBE2"/>
<path d="M100.971 61.7792C104.304 63.7037 104.304 68.5149 100.971 70.4394L66.1289 90.5553C62.7955 92.4798 58.6289 90.0742 58.6289 86.2252L58.6289 45.9934C58.6289 42.1444 62.7955 39.7388 66.1289 41.6633L100.971 61.7792Z" fill="#EDEBE2"/>
</svg>
