<svg width="49" height="70" viewBox="0 0 49 70" fill="none" xmlns="http://www.w3.org/2000/svg">
<path d="M48.418 34.9714L48.4186 34.9719C48.423 34.9754 48.4328 34.9843 48.4464 34.9998C48.4334 35.0145 48.4241 35.0228 48.4202 35.0259L48.418 35.0277C46.976 36.1823 44.9505 38.3605 42.6936 41.0807C40.4293 43.81 37.9097 47.1124 35.4763 50.5383C30.6241 57.3696 26.066 64.7598 24.5954 69.0817C24.5593 69.1876 24.5277 69.2717 24.4998 69.3382C24.4721 69.2717 24.4407 69.1879 24.4051 69.0827L24.4048 69.0818C22.9331 64.76 18.375 57.3697 13.5227 50.5383C11.0895 47.1124 8.56988 43.81 6.30559 41.0807C4.04876 38.3605 2.0232 36.1823 0.580892 35.0276L0.577389 35.0249C0.573979 35.0222 0.565011 35.0143 0.552296 34.9998C0.565578 34.9846 0.575177 34.976 0.579212 34.9728L0.580885 34.9714C2.0232 33.8167 4.04876 31.6385 6.30559 28.9182C8.56988 26.189 11.0895 22.8866 13.5227 19.4608C18.375 12.6295 22.9331 5.23956 24.4048 0.918345L24.4051 0.917419C24.4407 0.812167 24.4721 0.728333 24.4998 0.661887C24.5277 0.728428 24.5593 0.81253 24.5954 0.918365C26.0659 5.23969 30.6241 12.6296 35.4763 19.4608C37.9097 22.8866 40.4293 26.189 42.6936 28.9182C44.9505 31.6385 46.976 33.8167 48.418 34.9714Z" fill="#EDEBE2" stroke="#2A2A2A"/>
</svg>
