<svg width="16" height="14" viewBox="0 0 16 14" fill="none" xmlns="http://www.w3.org/2000/svg">
<path d="M4.04525 0.232919L4.29703 0.091759L5.60991 0.0727662L6.88083 0.0773001L8.62351 0.0379855L9.82895 0.0240732L11.2493 0L11.9175 0.01149L12.0485 0.0483824L16 7.09981L15.9078 7.42731L15.2669 8.44857L14.6679 9.4463L13.2283 11.7979L12.6294 12.7956L12.1092 13.6388L11.97 13.8824L11.7602 14L10.5967 13.9904L6.78393 13.9768L5.90083 13.9755L4.73736 13.9658L4.06915 13.9544L3.93819 13.9175L0.0101586 6.908L0 6.69305L0.761741 5.49374L1.42112 4.40698L2.36407 2.94059L3.02344 1.85383L3.64593 0.898074L4.04525 0.232919ZM4.6632 0.548379L4.64476 0.613879L5.32688 1.83109L5.77511 1.74527L9.11237 0.811942L9.87786 0.603407L10.0222 0.467328L8.81676 0.48124L7.22349 0.491948L5.69571 0.521101L4.70517 0.524853L4.6632 0.548379ZM4.20161 0.807172L3.43987 2.00648L2.79894 3.02774L2.0976 4.13803L1.43823 5.22479L1.40134 5.35579L1.71353 5.1256L4.97273 2.0848L4.24358 0.783646L4.20161 0.807172ZM5.79542 2.17516L6.32945 2.53767L7.17246 3.05792L8.34797 3.77786L12.9845 6.63921L13.092 6.63413L12.8397 5.39659L11.9886 1.5161L11.8221 0.726903L11.7045 0.517039L10.9809 0.702048L6.72877 1.87252L5.92131 2.10458L5.79542 2.17516ZM4.9142 2.66922L2.80964 4.62138L0.542315 6.77512L0.772447 7.08738L3.02805 9.24269L4.58498 10.7417L5.03509 11.1512L5.09041 10.9547L5.07971 9.3611L5.0572 3.41644L5.06361 2.64061L4.9142 2.66922ZM5.44636 2.53634L5.45706 4.12998L5.46269 5.61615L5.47339 7.20978L5.46886 8.481L5.48785 9.7942L5.48652 10.6775L5.51699 11.3223L12.9864 7.13459L12.2744 6.65124L8.48082 4.31014L7.1273 3.46936L5.86278 2.68899L5.53028 2.48929L5.44636 2.53634ZM1.1405 8.03939L4.08064 13.286L4.44307 12.7518L5.00008 11.7776L4.995 11.6702L2.37829 9.1657L1.18246 8.01586L1.1405 8.03939ZM12.4285 1.71072L13.0896 4.76004L13.5554 6.87072L13.8174 6.94451L14.9809 6.95412L15.4106 6.9338L12.4705 1.6872L12.4285 1.71072ZM5.85457 11.6295L6.271 11.7822L7.01485 12.027L8.08611 12.3642L9.96671 12.9646L10.9725 13.2833L11.5854 13.4912L11.7062 13.3132L11.8486 12.6817L11.9777 12.2232L12.0833 11.7228L12.2308 11.1988L12.3364 10.6983L12.4839 10.1743L12.5895 9.67383L12.737 9.14984L12.8426 8.64937L12.9902 8.12537L13.0957 7.6249L13.0722 7.58293L5.85457 11.6295ZM5.33258 11.9773L4.85442 12.797L4.4551 13.4622L4.71704 13.536L6.20286 13.5303L7.53926 13.5533L8.85215 13.5343L9.80073 13.5541L10.1886 13.5573L10.249 13.4683L9.72509 13.3207L9.24318 13.1496L8.71931 13.002L8.2374 12.8309L7.77901 12.7018L7.2971 12.5307L6.83871 12.4016L6.3568 12.2305L5.83293 12.0829L5.4165 11.9303L5.33258 11.9773ZM13.5573 7.36611L13.0511 9.41504L12.3471 12.2919L12.4546 12.2869L13.1743 11.1111L13.7733 10.1133L14.4931 8.93755L15.0921 7.93982L15.3706 7.45271L15.3655 7.34524L13.9871 7.34579L13.6412 7.31906L13.5573 7.36611Z" fill="#EDEBE2"/>
<path d="M10.0706 6.18734C10.7372 6.57226 10.7372 7.53437 10.0706 7.91929L7.75382 9.25721C7.08716 9.6422 6.25374 9.16108 6.25374 8.39124L6.25374 5.71539C6.25374 4.94555 7.08716 4.46443 7.75382 4.84942L10.0706 6.18734Z" fill="#EDEBE2"/>
</svg>
