<svg width="221" height="224" viewBox="0 0 221 224" fill="none" xmlns="http://www.w3.org/2000/svg">
<path d="M220 131.327L220.5 131.327V131.326L220 131.327ZM119.986 149.432L120.454 149.257L119.486 149.432L119.986 149.432ZM154.377 223V223.5L154.611 222.558L154.377 223ZM66.5714 223L66.3377 222.558L66.5714 223.5V223ZM100.963 149.432L101.463 149.432L100.495 149.256L100.963 149.432ZM68.1587 82.1449L68.0085 82.6218L69.4139 83.0644L68.5681 81.8579L68.1587 82.1449ZM110.472 1V1.5V1ZM152.785 82.1449L152.375 81.8579L151.53 83.0644L152.935 82.6218L152.785 82.1449ZM119.304 53.1519C119.58 53.1519 119.804 52.9281 119.804 52.6519C119.804 52.3758 119.58 52.1519 119.304 52.1519V53.1519ZM110.152 61.3039C110.152 61.58 110.376 61.8039 110.652 61.8039C110.928 61.8039 111.152 61.58 111.152 61.3039H110.152ZM219.5 131.327C219.503 143.293 215.297 154.881 207.616 164.067L208.384 164.709C216.214 155.342 220.503 143.528 220.5 131.327L219.5 131.327ZM207.616 164.067C199.936 173.254 189.269 179.455 177.476 181.59L177.654 182.574C189.677 180.398 200.553 174.075 208.384 164.709L207.616 164.067ZM177.476 181.59C165.683 183.725 153.514 181.657 143.092 175.748L142.599 176.618C153.224 182.643 165.631 184.751 177.654 182.574L177.476 181.59ZM143.092 175.748C132.671 169.838 124.659 160.462 120.454 149.257L119.517 149.608C123.805 161.033 131.974 170.593 142.599 176.618L143.092 175.748ZM119.486 149.432C119.466 166.391 119.997 180.608 124.605 192.724C129.227 204.875 137.93 214.869 154.143 223.442L154.611 222.558C138.573 214.077 130.061 204.254 125.54 192.369C121.006 180.448 120.466 166.408 120.486 149.433L119.486 149.432ZM154.377 222.5H66.5714V223.5H154.377V222.5ZM66.8051 223.442C83.0178 214.871 91.721 204.88 96.3431 192.73C100.952 180.614 101.483 166.396 101.463 149.432L100.463 149.433C100.483 166.413 99.9427 180.454 95.4084 192.374C90.8875 204.259 82.3752 214.08 66.3377 222.558L66.8051 223.442ZM100.495 149.256C96.981 158.599 90.8014 166.709 82.7203 172.583L83.3083 173.392C91.5475 167.404 97.8481 159.135 101.431 149.608L100.495 149.256ZM82.7203 172.583C74.6392 178.457 65.0109 181.837 55.0263 182.305L55.0731 183.304C65.2527 182.827 75.0691 179.381 83.3083 173.392L82.7203 172.583ZM55.0263 182.305C45.0416 182.773 35.1386 180.308 26.542 175.216L26.0324 176.076C34.797 181.268 44.8935 183.781 55.0731 183.304L55.0263 182.305ZM26.542 175.216C17.9454 170.124 11.0323 162.627 6.65745 153.654L5.75858 154.092C10.2191 163.241 17.2677 170.885 26.0324 176.076L26.542 175.216ZM6.65745 153.654C2.28265 144.68 0.638017 134.623 1.9269 124.726L0.935271 124.597C-0.378897 134.688 1.29802 144.943 5.75858 154.092L6.65745 153.654ZM1.9269 124.726C3.21578 114.829 7.38165 105.527 13.9094 97.9687L13.1526 97.315C6.49703 105.021 2.24944 114.506 0.935271 124.597L1.9269 124.726ZM13.9094 97.9687C20.4372 90.4106 29.0406 84.9288 38.6557 82.2011L38.3828 81.2391C28.5799 84.02 19.8082 89.609 13.1526 97.315L13.9094 97.9687ZM38.6557 82.2011C48.2708 79.4735 58.4758 79.6198 68.0085 82.6218L68.3089 81.668C58.5899 78.6073 48.1857 78.4582 38.3828 81.2391L38.6557 82.2011ZM68.5681 81.8579C63.2027 74.2043 60.0427 65.2278 59.4319 55.9056L58.4341 55.9709C59.0568 65.476 62.2788 74.6284 67.7493 82.4319L68.5681 81.8579ZM59.4319 55.9056C58.8211 46.5833 60.7829 37.2723 65.1038 28.986L64.2171 28.5236C59.8115 36.9723 57.8113 46.4658 58.4341 55.9709L59.4319 55.9056ZM65.1038 28.986C69.4248 20.6996 75.9393 13.7553 83.9385 8.90898L83.4203 8.0537C75.2648 12.9947 68.6227 20.0749 64.2171 28.5236L65.1038 28.986ZM83.9385 8.90898C91.9377 4.06265 101.115 1.5 110.472 1.5V0.5C100.932 0.5 91.5759 3.11267 83.4203 8.0537L83.9385 8.90898ZM110.472 1.5C119.828 1.5 129.006 4.06265 137.005 8.90898L137.523 8.0537C129.368 3.11267 120.011 0.5 110.472 0.5V1.5ZM137.005 8.90898C145.004 13.7553 151.519 20.6996 155.84 28.986L156.726 28.5236C152.321 20.0749 145.679 12.9947 137.523 8.0537L137.005 8.90898ZM155.84 28.986C160.161 37.2723 162.122 46.5833 161.511 55.9056L162.509 55.9709C163.132 46.4658 161.132 36.9723 156.726 28.5236L155.84 28.986ZM161.511 55.9056C160.901 65.2278 157.741 74.2043 152.375 81.8579L153.194 82.4319C158.665 74.6284 161.887 65.476 162.509 55.9709L161.511 55.9056ZM152.935 82.6218C160.599 80.2084 168.725 79.6312 176.654 80.937L176.816 79.9503C168.732 78.619 160.448 79.2075 152.635 81.668L152.935 82.6218ZM176.654 80.937C184.583 82.2428 192.093 85.3948 198.575 90.1377L199.165 89.3307C192.557 84.495 184.9 81.2815 176.816 79.9503L176.654 80.937ZM198.575 90.1377C205.057 94.8806 210.329 101.081 213.964 108.237L214.856 107.784C211.149 100.488 205.774 94.1663 199.165 89.3307L198.575 90.1377ZM213.964 108.237C217.6 115.393 219.496 123.303 219.5 131.327L220.5 131.326C220.496 123.145 218.562 115.08 214.856 107.784L213.964 108.237ZM154.5 52.5C154.5 76.8005 134.801 96.5 110.5 96.5V97.5C135.353 97.5 155.5 77.3528 155.5 52.5H154.5ZM110.5 96.5C86.1995 96.5 66.5 76.8005 66.5 52.5H65.5C65.5 77.3528 85.6472 97.5 110.5 97.5V96.5ZM66.5 52.5C66.5 28.1995 86.1995 8.5 110.5 8.5V7.5C85.6472 7.5 65.5 27.6472 65.5 52.5H66.5ZM110.5 8.5C134.801 8.5 154.5 28.1995 154.5 52.5H155.5C155.5 27.6472 135.353 7.5 110.5 7.5V8.5ZM96.5 131.5C96.5 155.801 76.8005 175.5 52.5 175.5V176.5C77.3528 176.5 97.5 156.353 97.5 131.5H96.5ZM52.5 175.5C28.1995 175.5 8.5 155.801 8.5 131.5H7.5C7.5 156.353 27.6472 176.5 52.5 176.5V175.5ZM8.5 131.5C8.5 107.199 28.1995 87.5 52.5 87.5V86.5C27.6472 86.5 7.5 106.647 7.5 131.5H8.5ZM52.5 87.5C76.8005 87.5 96.5 107.199 96.5 131.5H97.5C97.5 106.647 77.3528 86.5 52.5 86.5V87.5ZM212.5 131.5C212.5 155.801 192.801 175.5 168.5 175.5V176.5C193.353 176.5 213.5 156.353 213.5 131.5H212.5ZM168.5 175.5C144.199 175.5 124.5 155.801 124.5 131.5H123.5C123.5 156.353 143.647 176.5 168.5 176.5V175.5ZM124.5 131.5C124.5 107.199 144.199 87.5 168.5 87.5V86.5C143.647 86.5 123.5 106.647 123.5 131.5H124.5ZM168.5 87.5C192.801 87.5 212.5 107.199 212.5 131.5H213.5C213.5 106.647 193.353 86.5 168.5 86.5V87.5ZM102 53.1519H110.652V52.1519H102V53.1519ZM110.652 53.1519H119.304V52.1519H110.652V53.1519ZM110.152 44V52.6519H111.152V44H110.152ZM110.152 52.6519V61.3039H111.152V52.6519H110.152ZM103.5 131.5C103.5 159.667 80.6665 182.5 52.5 182.5V183.5C81.2188 183.5 104.5 160.219 104.5 131.5H103.5ZM52.5 182.5C24.3335 182.5 1.5 159.667 1.5 131.5H0.5C0.5 160.219 23.7812 183.5 52.5 183.5V182.5ZM1.5 131.5C1.5 103.333 24.3335 80.5 52.5 80.5V79.5C23.7812 79.5 0.5 102.781 0.5 131.5H1.5ZM52.5 80.5C80.6665 80.5 103.5 103.333 103.5 131.5H104.5C104.5 102.781 81.2188 79.5 52.5 79.5V80.5ZM219.5 131.5C219.5 159.667 196.667 182.5 168.5 182.5V183.5C197.219 183.5 220.5 160.219 220.5 131.5H219.5ZM168.5 182.5C140.333 182.5 117.5 159.667 117.5 131.5H116.5C116.5 160.219 139.781 183.5 168.5 183.5V182.5ZM117.5 131.5C117.5 103.333 140.333 80.5 168.5 80.5V79.5C139.781 79.5 116.5 102.781 116.5 131.5H117.5ZM168.5 80.5C196.667 80.5 219.5 103.333 219.5 131.5H220.5C220.5 102.781 197.219 79.5 168.5 79.5V80.5Z" fill="#2A2A2A"/>
</svg>
