<svg width="60" height="60" viewBox="0 0 60 60" fill="none" xmlns="http://www.w3.org/2000/svg">
<path d="M24.4716 42.7028C23.8592 42.8276 23.2906 42.717 22.7658 42.3708C22.2411 42.0247 21.9164 41.5462 21.7919 40.9353L18.6225 25.3857C18.498 24.7749 18.6094 24.2075 18.9569 23.6836C19.3043 23.1596 19.7842 22.8353 20.3966 22.7105L21.5101 22.4835L21.0573 20.2621L23.2843 19.8082L23.737 22.0296L32.6448 20.2139L32.192 17.9926L34.419 17.5387L34.8717 19.76L35.9852 19.5331C36.5976 19.4082 37.1662 19.5189 37.691 19.865C38.2158 20.2112 38.5404 20.6897 38.6649 21.3005L41.8344 36.8501C41.9589 37.461 41.8474 38.0284 41.5 38.5523C41.1525 39.0762 40.6726 39.4006 40.0602 39.5254L24.4716 42.7028ZM24.0188 40.4814L39.6074 37.304L37.3435 26.1972L21.755 29.3746L24.0188 40.4814ZM21.3022 27.1532L36.8908 23.9758L36.438 21.7544L20.8494 24.9318L21.3022 27.1532Z" fill="#EDEBE2"/>
<path d="M48.6743 6.2855C55.0156 11.5257 59.0226 18.319 59.9209 26.5241C60.5251 36.0034 57.6579 43.8059 51.6349 50.9841C48.1054 54.7384 43.6252 56.9823 38.809 58.6247C38.4695 58.746 38.13 58.8674 37.7802 58.9925C30.5627 61.1998 21.9639 59.5521 15.3711 56.2617C13.4735 55.1959 11.952 53.8535 10.3824 52.3578C9.61013 51.6268 8.82277 50.9698 7.99084 50.3097C3.37586 46.2953 0.650249 39.8511 0.0803097 33.8543C-0.476291 24.736 1.83281 16.4149 7.86783 9.42468C18.3482 -1.62093 36.6272 -3.33221 48.6743 6.2855ZM24.8536 2.27032C24.964 3.31821 25.076 4.36589 25.189 5.4135C25.2202 5.71074 25.2513 6.00799 25.2834 6.31424C25.3301 6.74355 25.3301 6.74355 25.3777 7.18154C25.4059 7.4449 25.434 7.70827 25.4629 7.97961C25.559 8.76273 25.559 8.76273 25.9271 9.76045C26.9708 9.77972 28.0142 9.79387 29.0581 9.80504C29.3533 9.81101 29.6485 9.81699 29.9527 9.82315C30.2386 9.82545 30.5246 9.82775 30.8193 9.83012C31.2128 9.83572 31.2128 9.83572 31.6143 9.84144C32.4904 9.7473 33.0551 9.51316 33.7993 9.04711C34.5907 7.04527 34.6292 4.75168 34.515 2.62699C34.3969 2.39159 34.2788 2.15618 34.1572 1.91364C32.7408 1.90333 31.3244 1.89696 29.9079 1.89135C29.5043 1.88836 29.1007 1.88538 28.6849 1.8823C28.2997 1.88115 27.9146 1.88 27.5177 1.87881C26.9837 1.87601 26.9837 1.87601 26.4388 1.87315C25.5658 1.85517 25.5658 1.85517 24.8536 2.27032ZM43.4607 5.48038C43.0207 6.05641 43.0207 6.05642 42.6081 6.80675C42.449 7.08032 42.2898 7.35388 42.1259 7.63574C41.9612 7.92494 41.7965 8.21414 41.6269 8.5121C41.4594 8.8013 41.292 9.09049 41.1195 9.38845C40.7047 10.1056 40.2925 10.824 39.8825 11.5438C40.7609 12.6769 41.6446 13.6955 42.7227 14.6424C42.9547 14.8498 43.1868 15.0571 43.4258 15.2708C44.2382 15.8695 45.0161 16.2031 45.9656 16.5372C46.6071 16.0176 47.2481 15.4973 47.8889 14.9768C48.2459 14.6871 48.6029 14.3975 48.9708 14.099C50.2508 13.1065 50.2508 13.1065 50.841 11.6776C50.4855 9.76388 49.236 8.81295 47.7547 7.62041C45.7659 6.12185 45.7659 6.12185 43.4607 5.48038ZM15.55 5.83705C12.5098 6.90327 10.5535 9.26149 8.3934 11.5438C9.20537 13.0769 10.2024 14.079 11.502 15.222C11.6849 15.3841 11.8678 15.5461 12.0563 15.7131C12.5033 16.1088 12.9529 16.5016 13.403 16.8939C14.834 16.4101 15.7468 15.7791 16.8471 14.7539C17.7122 13.9534 18.5009 13.2685 19.4861 12.6138C19.0054 11.0158 18.3656 9.65955 17.5181 8.2223C17.3003 7.8485 17.0826 7.47471 16.8583 7.08958C16.3527 6.16274 16.3527 6.16274 15.55 5.83705ZM14.8343 17.6073C11.3176 22.116 10.2147 26.96 10.5404 32.5875C11.3537 38.1387 14.2047 42.7134 18.681 46.0742C23.1519 49.0197 28.226 49.9541 33.4974 49.1868C38.9727 47.966 43.3893 45.021 46.4897 40.3452C49.0855 35.7102 49.9524 30.6183 48.7835 25.4095C47.2549 20.1223 44.2408 15.9429 39.4547 13.1252C30.9377 8.78584 21.2802 10.5944 14.8343 17.6073ZM53.8686 20.2935C53.6234 20.3948 53.3781 20.4962 53.1255 20.6007C52.8144 20.731 52.5034 20.8614 52.1829 20.9957C51.1939 21.4076 50.205 21.8196 49.186 22.244C49.5403 24.7158 49.8945 27.1875 50.2595 29.7341C52.8574 29.7341 55.4552 29.7341 58.1318 29.7341C58.1318 27.5374 58.1133 25.9954 57.6621 23.9382C57.5314 23.3175 57.5314 23.3175 57.398 22.6843C57.0632 21.5473 56.6853 20.7022 55.9848 19.7473C55.1426 19.7473 54.645 19.97 53.8686 20.2935ZM3.38377 20.8173C3.21403 21.2513 3.04428 21.6854 2.86939 22.1325C2.77391 22.3767 2.67843 22.6208 2.58005 22.8724C2.00877 24.563 1.91205 26.1035 1.93009 27.8839C1.93747 28.6122 1.94485 29.3405 1.95245 30.0908C4.43222 30.0908 6.91198 30.0908 9.46689 30.0908C10.0476 27.2988 10.0476 27.2988 10.4062 24.5178C10.4329 24.2189 10.4597 23.9201 10.4873 23.6122C10.5048 23.3961 10.5223 23.18 10.5404 22.9574C9.68453 22.5968 8.82722 22.2409 7.96847 21.8873C7.72746 21.7853 7.48645 21.6832 7.23814 21.578C5.9065 21.0342 4.82772 20.6832 3.38377 20.8173ZM49.186 36.5109C48.6363 37.4295 48.0933 38.3509 47.5534 39.2752C47.3968 39.5354 47.2402 39.7956 47.0789 40.0637C46.9324 40.3166 46.786 40.5695 46.6351 40.83C46.4983 41.0616 46.3615 41.2932 46.2206 41.5319C45.8994 42.3957 45.9859 42.7958 46.3234 43.6444C47.1076 44.4913 47.1076 44.4913 48.0678 45.294C48.3842 45.5708 48.7007 45.8476 49.0267 46.1327C50.1998 47.1987 50.1998 47.1987 51.6671 47.572C52.7952 47.0215 53.2573 46.0544 53.8602 45.0042C54.2207 44.4008 54.2207 44.4008 54.5884 43.7851C54.8131 43.3856 55.0377 42.986 55.2691 42.5744C55.4827 42.2079 55.6963 41.8415 55.9163 41.464C56.4071 40.4695 56.4071 40.4695 56.3315 39.4577C56.0522 38.6026 56.0522 38.6026 55.2803 38.1898C54.9814 38.0845 54.6825 37.9792 54.3746 37.8707C54.0545 37.7572 53.7343 37.6436 53.4045 37.5266C52.008 37.1036 50.6191 36.7874 49.186 36.5109ZM7.52118 37.9153C7.23866 38.0144 6.95613 38.1135 6.66505 38.2156C5.17817 38.7299 5.17817 38.7299 3.7416 39.3643C4.34846 42.5703 5.84372 45.4876 8.03557 47.9245C9.85672 47.7931 10.8343 46.7957 12.0835 45.5838C12.2802 45.3983 12.477 45.2128 12.6797 45.0216C13.1623 44.5657 13.6409 44.1054 14.1187 43.6444C13.7346 42.1753 13.364 40.9151 12.5084 39.6541C11.9011 38.7479 11.3708 37.8513 10.8982 36.8676C9.81241 36.8676 8.55573 37.5493 7.52118 37.9153ZM19.4861 47.5678C18.9364 48.4863 18.3934 49.4078 17.8535 50.332C17.6969 50.5923 17.5403 50.8525 17.379 51.1206C17.2325 51.3735 17.0861 51.6263 16.9352 51.8869C16.7984 52.1185 16.6616 52.3501 16.5207 52.5887C16.2017 53.4466 16.2851 53.8602 16.6235 54.7013C19.1977 56.5442 22.4309 57.3584 25.5692 57.198C26.2549 54.8288 26.4866 52.5218 26.6427 50.0645C25.7862 49.7133 24.9288 49.3644 24.0708 49.0168C23.8298 48.9177 23.5888 48.8186 23.3405 48.7165C22.0617 48.2005 20.8586 47.7777 19.4861 47.5678ZM39.5917 47.7169C39.3334 47.8075 39.0751 47.898 38.809 47.9914C38.5253 48.0907 38.2416 48.19 37.9493 48.2923C36.4349 48.8553 34.9378 49.4553 33.4415 50.0645C33.9138 52.4186 34.3862 54.7726 34.8728 57.198C37.0057 57.258 37.0057 57.258 38.8369 56.7549C39.205 56.6149 39.205 56.6149 39.5805 56.4721C39.9514 56.3238 39.9514 56.3238 40.3297 56.1725C40.5825 56.0764 40.8353 55.9804 41.0957 55.8813C42.2123 55.4492 43.1764 55.0091 44.1764 54.3446C43.684 51.8905 42.4322 49.9305 40.9559 47.9245C40.271 47.4885 40.271 47.4885 39.5917 47.7169Z" fill="#EDEBE2"/>
</svg>
