<svg width="21" height="23" viewBox="0 0 21 23" fill="none" xmlns="http://www.w3.org/2000/svg">
<path d="M11.8549 20.6966C12.2123 21.3639 12.7068 21.9605 13.3777 22.5H7.62233C8.29316 21.9605 8.78767 21.3639 9.14511 20.6966C9.719 19.6253 9.91243 18.4205 9.97768 17.0899L10.0325 15.971L9.16301 16.6774C8.24601 17.4223 6.72597 18.3191 4.7267 18.3182H4.72646C3.87409 18.3182 2.80483 17.989 1.95583 17.2959C1.12117 16.6145 0.5 15.584 0.5 14.1452C0.5 12.7446 0.74841 11.8404 1.18121 11.1087C1.62389 10.3603 2.28198 9.7497 3.20229 8.96242C3.32176 8.86021 3.44474 8.75575 3.57113 8.64838C5.30693 7.17385 7.68659 5.15238 10.4998 0.915504C13.3131 5.15237 15.6929 7.17395 17.4288 8.64855C17.5552 8.75592 17.6782 8.86039 17.7976 8.96261C18.718 9.74992 19.3761 10.3605 19.8188 11.1089C20.2516 11.8406 20.5 12.7448 20.5 14.1452C20.5 15.5842 19.8794 16.6144 19.0451 17.2956C18.1965 17.9885 17.1272 18.3177 16.2733 18.3182C14.2733 18.3181 12.7537 17.4226 11.8371 16.6775L10.9674 15.9705L11.0223 17.0899C11.0876 18.4205 11.281 19.6253 11.8549 20.6966Z" stroke="#EDEBE2"/>
</svg>
