<svg width="18" height="20" viewBox="0 0 18 20" fill="none" xmlns="http://www.w3.org/2000/svg">
<path d="M11.8197 15.6577H5.91803M16.7377 1H15.7541M15.7541 1H1.98361M15.7541 1C15.7541 3.45293 14.5617 5.75487 12.5526 7.1806L8.86885 9.7946M1.98361 1H1M1.98361 1C1.98361 3.45293 3.17601 5.75487 5.18518 7.1806L8.86885 9.7946M8.86885 9.7946L12.5526 12.4086C14.5617 13.8344 15.7541 16.1363 15.7541 18.5892M8.86885 9.7946L5.18518 12.4086C3.17601 13.8344 1.98361 16.1363 1.98361 18.5892M16.7377 18.5892H15.7541M15.7541 18.5892H1.98361M1.98361 18.5892H1" stroke="#EDEBE2" stroke-linecap="round" stroke-linejoin="round"/>
</svg>
