<svg width="60" height="60" viewBox="0 0 60 60" fill="none" xmlns="http://www.w3.org/2000/svg">
<path d="M48.6743 6.2855C55.0156 11.5257 59.0226 18.319 59.9209 26.5241C60.5251 36.0034 57.6579 43.8059 51.6349 50.9841C48.1054 54.7384 43.6252 56.9823 38.809 58.6247C38.4695 58.746 38.13 58.8674 37.7802 58.9925C30.5627 61.1998 21.9639 59.5521 15.3711 56.2617C13.4735 55.1959 11.952 53.8535 10.3824 52.3578C9.61013 51.6268 8.82277 50.9698 7.99084 50.3097C3.37586 46.2953 0.650249 39.8511 0.0803097 33.8543C-0.476291 24.736 1.83281 16.4149 7.86783 9.42468C18.3482 -1.62093 36.6272 -3.33221 48.6743 6.2855ZM24.8536 2.27032C24.964 3.31821 25.076 4.36589 25.189 5.4135C25.2202 5.71074 25.2513 6.00799 25.2834 6.31424C25.3301 6.74355 25.3301 6.74355 25.3777 7.18154C25.4059 7.4449 25.434 7.70827 25.4629 7.97961C25.559 8.76273 25.559 8.76273 25.9271 9.76045C26.9708 9.77972 28.0142 9.79387 29.0581 9.80504C29.3533 9.81101 29.6485 9.81699 29.9527 9.82315C30.2386 9.82545 30.5246 9.82775 30.8193 9.83011C31.2128 9.83572 31.2128 9.83572 31.6143 9.84144C32.4904 9.7473 33.0551 9.51316 33.7993 9.04711C34.5907 7.04527 34.6292 4.75168 34.515 2.62699C34.3969 2.39159 34.2788 2.15618 34.1572 1.91364C32.7408 1.90333 31.3244 1.89696 29.9079 1.89135C29.5043 1.88836 29.1007 1.88538 28.6849 1.8823C28.2997 1.88115 27.9146 1.88 27.5177 1.87881C26.9837 1.87601 26.9837 1.87601 26.4388 1.87315C25.5658 1.85517 25.5658 1.85517 24.8536 2.27032ZM43.4607 5.48037C43.0207 6.05641 43.0207 6.05641 42.6081 6.80675C42.449 7.08032 42.2898 7.35388 42.1259 7.63574C41.9612 7.92494 41.7965 8.21414 41.6269 8.5121C41.4594 8.80129 41.292 9.09049 41.1195 9.38845C40.7047 10.1056 40.2925 10.824 39.8824 11.5438C40.7609 12.6769 41.6446 13.6955 42.7227 14.6424C42.9547 14.8498 43.1868 15.0571 43.4258 15.2708C44.2382 15.8695 45.0161 16.2031 45.9656 16.5372C46.6071 16.0176 47.2481 15.4973 47.8889 14.9768C48.2459 14.6871 48.6029 14.3975 48.9708 14.099C50.2508 13.1065 50.2508 13.1065 50.841 11.6776C50.4855 9.76388 49.236 8.81295 47.7547 7.62041C45.7659 6.12185 45.7659 6.12185 43.4607 5.48037ZM15.55 5.83705C12.5098 6.90327 10.5535 9.26149 8.3934 11.5438C9.20537 13.0769 10.2024 14.079 11.502 15.222C11.6849 15.3841 11.8678 15.5461 12.0563 15.7131C12.5033 16.1088 12.9529 16.5016 13.403 16.8939C14.834 16.4101 15.7468 15.7791 16.8471 14.7539C17.7122 13.9534 18.5009 13.2685 19.4861 12.6138C19.0054 11.0158 18.3656 9.65955 17.5181 8.2223C17.3003 7.8485 17.0826 7.47471 16.8583 7.08958C16.3527 6.16274 16.3527 6.16274 15.55 5.83705ZM14.8343 17.6073C11.3176 22.116 10.2147 26.96 10.5404 32.5875C11.3537 38.1387 14.2047 42.7134 18.681 46.0742C23.1519 49.0197 28.226 49.9541 33.4974 49.1868C38.9727 47.966 43.3893 45.021 46.4897 40.3452C49.0855 35.7102 49.9524 30.6183 48.7835 25.4095C47.2549 20.1223 44.2408 15.9429 39.4547 13.1252C30.9377 8.78584 21.2802 10.5944 14.8343 17.6073ZM53.8686 20.2935C53.6234 20.3948 53.3781 20.4962 53.1255 20.6007C52.8144 20.731 52.5034 20.8614 52.1829 20.9957C51.1939 21.4076 50.205 21.8196 49.186 22.244C49.5403 24.7158 49.8945 27.1875 50.2595 29.7341C52.8574 29.7341 55.4552 29.7341 58.1318 29.7341C58.1318 27.5374 58.1133 25.9954 57.6621 23.9382C57.5314 23.3175 57.5314 23.3175 57.398 22.6843C57.0632 21.5473 56.6853 20.7022 55.9848 19.7473C55.1426 19.7473 54.645 19.97 53.8686 20.2935ZM3.38377 20.8173C3.21403 21.2513 3.04428 21.6854 2.86939 22.1325C2.77391 22.3767 2.67843 22.6208 2.58005 22.8724C2.00877 24.563 1.91205 26.1035 1.93009 27.8839C1.93747 28.6122 1.94485 29.3405 1.95245 30.0908C4.43222 30.0908 6.91198 30.0908 9.46689 30.0908C10.0476 27.2988 10.0476 27.2988 10.4062 24.5178C10.4329 24.2189 10.4597 23.9201 10.4873 23.6122C10.5048 23.3961 10.5223 23.18 10.5404 22.9574C9.68453 22.5968 8.82722 22.2409 7.96847 21.8873C7.72746 21.7853 7.48645 21.6832 7.23814 21.578C5.9065 21.0342 4.82772 20.6832 3.38377 20.8173ZM49.186 36.5109C48.6363 37.4295 48.0933 38.3509 47.5534 39.2752C47.3968 39.5354 47.2402 39.7956 47.0789 40.0637C46.9324 40.3166 46.786 40.5695 46.6351 40.83C46.4983 41.0616 46.3615 41.2932 46.2206 41.5319C45.8994 42.3957 45.9859 42.7958 46.3234 43.6444C47.1076 44.4913 47.1076 44.4913 48.0678 45.294C48.3842 45.5708 48.7007 45.8476 49.0267 46.1327C50.1998 47.1987 50.1998 47.1987 51.6671 47.572C52.7952 47.0215 53.2573 46.0544 53.8602 45.0042C54.2207 44.4008 54.2207 44.4008 54.5884 43.7851C54.8131 43.3856 55.0377 42.986 55.2691 42.5744C55.4827 42.2079 55.6963 41.8415 55.9163 41.464C56.4071 40.4695 56.4071 40.4695 56.3315 39.4577C56.0522 38.6026 56.0521 38.6026 55.2803 38.1898C54.9814 38.0845 54.6825 37.9792 54.3746 37.8708C54.0545 37.7572 53.7343 37.6436 53.4045 37.5266C52.008 37.1036 50.6191 36.7874 49.186 36.5109ZM7.52118 37.9153C7.23866 38.0144 6.95613 38.1135 6.66505 38.2156C5.17817 38.7299 5.17817 38.7299 3.7416 39.3643C4.34846 42.5703 5.84372 45.4876 8.03557 47.9245C9.85672 47.7931 10.8343 46.7957 12.0835 45.5838C12.2802 45.3983 12.477 45.2128 12.6797 45.0216C13.1623 44.5657 13.6409 44.1054 14.1187 43.6444C13.7346 42.1753 13.364 40.9151 12.5084 39.6541C11.9011 38.7479 11.3708 37.8513 10.8982 36.8676C9.81241 36.8676 8.55572 37.5493 7.52118 37.9153ZM19.4861 47.5678C18.9364 48.4863 18.3934 49.4078 17.8535 50.332C17.6969 50.5923 17.5403 50.8525 17.379 51.1206C17.2325 51.3735 17.0861 51.6263 16.9352 51.8869C16.7984 52.1185 16.6616 52.3501 16.5207 52.5887C16.2017 53.4466 16.2851 53.8602 16.6235 54.7013C19.1977 56.5442 22.4309 57.3584 25.5692 57.198C26.2549 54.8288 26.4866 52.5218 26.6427 50.0645C25.7862 49.7133 24.9288 49.3644 24.0708 49.0168C23.8298 48.9177 23.5888 48.8186 23.3405 48.7165C22.0617 48.2005 20.8586 47.7777 19.4861 47.5678ZM39.5917 47.7169C39.3334 47.8075 39.0751 47.898 38.809 47.9913C38.5253 48.0907 38.2416 48.19 37.9493 48.2923C36.4349 48.8553 34.9378 49.4553 33.4415 50.0645C33.9138 52.4186 34.3862 54.7726 34.8728 57.198C37.0057 57.258 37.0057 57.258 38.8369 56.7549C39.205 56.6149 39.205 56.6149 39.5805 56.4721C39.9514 56.3238 39.9514 56.3238 40.3297 56.1725C40.5825 56.0764 40.8353 55.9804 41.0957 55.8813C42.2123 55.4492 43.1764 55.0091 44.1764 54.3446C43.684 51.8905 42.4322 49.9305 40.9559 47.9245C40.271 47.4885 40.271 47.4885 39.5917 47.7169Z" fill="#EDEBE2"/>
<path d="M29.9167 41.3066L28.5932 38.0518C28.3415 38.0252 28.0984 37.9776 27.8637 37.9088C27.629 37.8401 27.3963 37.7615 27.1657 37.6729L24.3859 39.8277L20.151 35.6047L22.3123 32.826C22.2619 32.708 22.2214 32.5919 22.1908 32.4779L22.0005 31.7675C21.9699 31.6535 21.947 31.5328 21.9316 31.4053L18.6706 30.0796L20.2266 24.3049L23.7114 24.7811C23.8668 24.5891 24.0333 24.4035 24.211 24.2243C24.3887 24.0451 24.5711 23.8834 24.7581 23.7393L24.2769 20.2588L30.0677 18.7071L31.3913 21.9619C31.6429 21.9885 31.886 22.0362 32.1207 22.1049C32.3554 22.1736 32.5881 22.2522 32.8187 22.3408L35.5985 20.186L39.8334 24.4091L37.6721 27.1877C37.7226 27.3057 37.7631 27.4218 37.7936 27.5358L37.9839 28.2462C38.0145 28.3602 38.0287 28.4833 38.0265 28.6154L41.2875 29.9411L39.7315 35.7158L36.2731 35.2326C36.1176 35.4246 35.9511 35.6102 35.7734 35.7894C35.5957 35.9686 35.4134 36.1303 35.2263 36.2744L35.7075 39.7549L29.9167 41.3066ZM31.1952 38.7081L33.2747 38.1509L32.8959 35.2633C33.4023 34.9773 33.8516 34.636 34.2437 34.2395C34.6359 33.843 34.9733 33.4001 35.256 32.9108L38.1509 33.2913L38.6981 31.2272L35.9762 30.1236C35.9981 29.8545 35.9902 29.5793 35.9524 29.2981C35.9147 29.0168 35.8582 28.7358 35.783 28.4552C35.7078 28.1746 35.6163 27.903 35.5083 27.6406C35.4004 27.3781 35.2696 27.1358 35.1161 26.9138L36.9216 24.5971L35.4156 23.0831L33.1058 24.8864C32.6117 24.5864 32.0957 24.3628 31.5578 24.2155C31.02 24.0682 30.4602 23.9973 29.8786 24.0028L28.7892 21.3056L26.7098 21.8628L27.0885 24.7504C26.5821 25.0365 26.1329 25.3777 25.7407 25.7742C25.3485 26.1707 25.0111 26.6136 24.7284 27.1029L21.8335 26.7224L21.2864 28.7865L24.0012 29.8638C23.984 30.1504 23.993 30.43 24.0284 30.7025C24.0639 30.975 24.1215 31.2603 24.2014 31.5585C24.2766 31.8391 24.367 32.1063 24.4726 32.36C24.5782 32.6137 24.7101 32.8603 24.8683 33.0999L23.0629 35.4166L24.5688 36.9306L26.8786 35.1273C27.3727 35.4273 27.8887 35.6509 28.4266 35.7982C28.9645 35.9455 29.5242 36.0164 30.1058 36.0109L31.1952 38.7081ZM31.0318 33.6761C32.0496 33.4034 32.8219 32.8111 33.3486 31.8992C33.8754 30.9873 34.0025 30.0226 33.7299 29.0053C33.4573 27.988 32.865 27.2162 31.9528 26.6898C31.0406 26.1635 30.0757 26.0367 29.0579 26.3094C28.0226 26.5868 27.2459 27.1803 26.7279 28.0899C26.2099 28.9994 26.0872 29.9628 26.3598 30.9802C26.6324 31.9975 27.2204 32.7705 28.1237 33.2992C29.0271 33.8279 29.9965 33.9535 31.0318 33.6761Z" fill="#EDEBE2"/>
</svg>
