<svg width="19" height="43" viewBox="0 0 19 43" fill="none" xmlns="http://www.w3.org/2000/svg">
<path d="M10.6786 19.7969C10.9968 20.425 11.4354 20.9888 12.0282 21.5H6.97177C7.56457 20.9888 8.00319 20.425 8.32139 19.7969C8.84128 18.7709 9.01606 17.6185 9.07505 16.3466L9.12873 15.1893L8.24982 15.9442C7.42316 16.6541 6.06166 17.5009 4.27657 17.5H4.27632C2.73499 17.5 0.5 16.2523 0.5 13.5302C0.5 12.1891 0.725189 11.3244 1.1157 10.6264C1.51436 9.91377 2.10661 9.33262 2.93862 8.58016C3.04667 8.48244 3.15788 8.38256 3.27218 8.27991C4.83433 6.87695 6.97298 4.95623 9.49978 0.951022C12.0268 4.95623 14.1655 6.87704 15.7277 8.28006C15.842 8.38272 15.9533 8.48261 16.0613 8.58034C16.8934 9.33283 17.4856 9.91401 17.8843 10.6266C18.2748 11.3246 18.5 12.1893 18.5 13.5302C18.5 16.2523 16.2674 17.4991 14.7234 17.5C12.9376 17.4999 11.5766 16.6544 10.7503 15.9443L9.87125 15.1888L9.92495 16.3466C9.98394 17.6185 10.1587 18.7709 10.6786 19.7969ZM7.01983 22.5H11.9802C11.4153 22.976 10.9928 23.5005 10.683 24.0842C10.1595 25.0704 9.98413 26.1773 9.925 27.3942L9.87034 28.5193L10.7414 27.8052C11.5664 27.1288 12.9308 26.3173 14.7234 26.3182H14.7237C15.4829 26.3182 16.4391 26.6146 17.1986 27.2403C17.9439 27.8543 18.5 28.7835 18.5 30.0848C18.5 31.3588 18.2761 32.1768 17.8893 32.8369C17.4929 33.5133 16.9028 34.0664 16.07 34.7854C15.962 34.8786 15.8507 34.974 15.7364 35.072C14.1732 36.4121 12.0311 38.2484 9.50022 42.0799C6.96915 38.2484 4.82698 36.412 3.2637 35.0719C3.14935 34.9738 3.0381 34.8785 2.93003 34.7852C2.09719 34.0662 1.50716 33.513 1.11072 32.8367C0.723849 32.1766 0.5 31.3587 0.5 30.0848C0.5 28.7834 1.05567 27.8544 1.80056 27.2406C2.55968 26.6151 3.51586 26.3186 4.27659 26.3182C6.06996 26.3183 7.43386 27.1286 8.25847 27.8051L9.12969 28.5198L9.075 27.3942C9.01587 26.1773 8.84046 25.0704 8.31701 24.0842C8.00718 23.5005 7.58469 22.976 7.01983 22.5Z" fill="#EDEBE2" stroke="#EDEBE2"/>
</svg>
