<svg width="150" height="131" viewBox="0 0 150 131" fill="none" xmlns="http://www.w3.org/2000/svg">
<path d="M3 62.5L40 4.5H111L147 68L111 127H40L3 62.5Z" fill="#2A2A2A" stroke="#2A2A2A"/>
<path d="M37.9242 2.17561L40.2846 0.857089L52.5929 0.679684L64.5078 0.722034L80.8454 0.35481L92.1464 0.22486L105.462 0L111.726 0.107324L112.954 0.451923L150 66.3169L149.136 69.376L143.127 78.9152L137.511 88.2347L124.016 110.2L118.4 119.519L113.524 127.396L112.219 129.67L110.252 130.769L99.3441 130.679L63.5994 130.552L55.3203 130.54L44.4127 130.45L38.1483 130.343L36.9205 129.998L0.0952365 64.5253L0 62.5175L7.14133 51.3152L13.323 41.1641L22.1632 27.4671L28.3448 17.316L34.1806 8.3886L37.9242 2.17561ZM43.7175 5.12223L43.5446 5.73403L49.9395 17.1036L54.1416 16.302L85.4285 7.58408L92.605 5.63622L93.9581 4.36515L82.6571 4.4951L67.7202 4.59512L53.3973 4.86743L44.1109 4.90247L43.7175 5.12223ZM39.3901 7.53952L32.2488 18.7419L26.24 28.2811L19.665 38.6519L13.4834 48.803L13.1376 50.0266L16.0643 47.8765L46.6193 19.4734L39.7835 7.31977L39.3901 7.53952ZM54.3321 20.3174L59.3386 23.7035L67.2418 28.563L78.2622 35.2877L121.73 62.0146L122.737 61.9671L120.372 50.4077L112.393 14.1614L110.832 6.78976L109.729 4.82949L102.946 6.55759L63.0822 17.4905L55.5123 19.6581L54.3321 20.3174ZM46.0706 24.9322L26.3404 43.1667L5.0842 63.2841L7.24169 66.2008L28.388 86.3328L42.9842 100.334L47.2039 104.16L47.7226 102.325L47.6222 87.4389L47.4113 31.9118L47.4713 24.665L46.0706 24.9322ZM51.0596 23.6911L51.1599 38.5767L51.2127 52.4585L51.3131 67.3441L51.2706 79.2182L51.4486 91.4843L51.4361 99.7349L51.7218 105.758L121.748 66.6418L115.072 62.127L79.5077 40.2596L66.8184 32.4061L54.9636 25.117L51.8464 23.2516L51.0596 23.6911ZM10.6922 75.0932L38.256 124.1L41.6538 119.111L46.8757 110.011L46.8281 109.007L22.2965 85.6137L11.0856 74.8734L10.6922 75.0932ZM116.518 15.9793L122.715 44.462L127.082 64.1771L129.538 64.8663L140.446 64.9561L144.475 64.7663L116.911 15.7595L116.518 15.9793ZM54.8866 108.627L58.7906 110.053L65.7642 112.34L75.8073 115.489L93.4379 121.098L102.867 124.074L108.613 126.017L109.745 124.354L111.081 118.456L112.291 114.173L113.281 109.498L114.664 104.604L115.654 99.9291L117.037 95.0347L118.027 90.36L119.41 85.4655L120.4 80.7908L121.783 75.8963L122.772 71.2216L122.552 70.8296L54.8866 108.627ZM49.9929 111.876L45.5102 119.533L41.7666 125.746L44.2223 126.435L58.1518 126.382L70.6806 126.597L82.9889 126.419L91.8819 126.604L95.5177 126.634L96.084 125.802L91.1727 124.424L86.6548 122.826L81.7435 121.448L77.2256 119.849L72.9282 118.643L68.4103 117.045L64.1129 115.839L59.595 114.241L54.6837 112.863L50.7797 111.437L49.9929 111.876ZM127.1 68.8043L122.354 87.9427L115.754 114.815L116.761 114.767L123.509 103.785L129.125 94.4652L135.873 83.4826L141.488 74.1631L144.099 69.6133L144.051 68.6094L131.129 68.6145L127.887 68.3648L127.1 68.8043Z" fill="#EDEBE2"/>
<path d="M64.4231 49.0385V81.0096M82.6923 49.0385V81.0096" stroke="#EDEBE2" stroke-width="4.75" stroke-linecap="round" stroke-linejoin="round"/>
</svg>
