<svg width="16" height="18" viewBox="0 0 16 18" fill="none" xmlns="http://www.w3.org/2000/svg">
<path d="M1 3.64583H15.1111M11.5833 3.64583L11.3447 2.92976C11.1133 2.23582 10.9976 1.88886 10.7831 1.63234C10.5937 1.40581 10.3505 1.23047 10.0757 1.1224C9.76441 1 9.39876 1 8.66727 1H7.44384C6.71236 1 6.3467 1 6.03547 1.1224C5.76067 1.23047 5.51739 1.40581 5.32796 1.63234C5.11343 1.88886 4.99778 2.23582 4.76647 2.92976L4.52778 3.64583M13.3472 3.64583V12.6417C13.3472 14.1235 13.3472 14.8643 13.0588 15.4304C12.8052 15.9282 12.4005 16.333 11.9026 16.5866C11.3366 16.875 10.5957 16.875 9.11389 16.875H6.99722C5.51542 16.875 4.77451 16.875 4.20854 16.5866C3.71069 16.333 3.30593 15.9282 3.05227 15.4304C2.76389 14.8643 2.76389 14.1235 2.76389 12.6417V3.64583M9.81945 7.17361V13.3472M6.29167 7.17361V13.3472" stroke="#EDEBE2" stroke-linecap="round" stroke-linejoin="round"/>
</svg>
