<svg width="56" height="56" viewBox="0 0 56 56" fill="none" xmlns="http://www.w3.org/2000/svg">
<g filter="url(#filter0_dd_532_948)">
<g clip-path="url(#clip0_532_948)">
<rect x="9" y="6" width="38" height="39" rx="11.6857" fill="#2A2A2A"/>
<path d="M25.5 31.5C24.95 31.5 24.4792 31.3042 24.0875 30.9125C23.6958 30.5208 23.5 30.05 23.5 29.5V17.5C23.5 16.95 23.6958 16.4792 24.0875 16.0875C24.4792 15.6958 24.95 15.5 25.5 15.5H34.5C35.05 15.5 35.5208 15.6958 35.9125 16.0875C36.3042 16.4792 36.5 16.95 36.5 17.5V29.5C36.5 30.05 36.3042 30.5208 35.9125 30.9125C35.5208 31.3042 35.05 31.5 34.5 31.5H25.5ZM25.5 29.5H34.5V17.5H25.5V29.5ZM21.5 35.5C20.95 35.5 20.4792 35.3042 20.0875 34.9125C19.6958 34.5208 19.5 34.05 19.5 33.5V19.5H21.5V33.5H32.5V35.5H21.5Z" fill="#EDEBE2"/>
</g>
<rect x="9.73036" y="6.73036" width="36.5393" height="37.5393" rx="10.9554" stroke="#EDEBE2" stroke-width="1.46072"/>
</g>
<defs>
<filter id="filter0_dd_532_948" x="0.966062" y="0.887494" width="54.0679" height="55.0679" filterUnits="userSpaceOnUse" color-interpolation-filters="sRGB">
<feFlood flood-opacity="0" result="BackgroundImageFix"/>
<feColorMatrix in="SourceAlpha" type="matrix" values="0 0 0 0 0 0 0 0 0 0 0 0 0 0 0 0 0 0 127 0" result="hardAlpha"/>
<feOffset dy="0.730358"/>
<feGaussianBlur stdDeviation="1.09554"/>
<feColorMatrix type="matrix" values="0 0 0 0 0 0 0 0 0 0 0 0 0 0 0 0 0 0 0.3 0"/>
<feBlend mode="normal" in2="BackgroundImageFix" result="effect1_dropShadow_532_948"/>
<feColorMatrix in="SourceAlpha" type="matrix" values="0 0 0 0 0 0 0 0 0 0 0 0 0 0 0 0 0 0 127 0" result="hardAlpha"/>
<feMorphology radius="2.19107" operator="dilate" in="SourceAlpha" result="effect2_dropShadow_532_948"/>
<feOffset dy="2.92143"/>
<feGaussianBlur stdDeviation="2.92143"/>
<feColorMatrix type="matrix" values="0 0 0 0 0 0 0 0 0 0 0 0 0 0 0 0 0 0 0.15 0"/>
<feBlend mode="normal" in2="effect1_dropShadow_532_948" result="effect2_dropShadow_532_948"/>
<feBlend mode="normal" in="SourceGraphic" in2="effect2_dropShadow_532_948" result="shape"/>
</filter>
<clipPath id="clip0_532_948">
<rect x="9" y="6" width="38" height="39" rx="11.6857" fill="white"/>
</clipPath>
</defs>
</svg>
