<svg width="56" height="56" viewBox="0 0 56 56" fill="none" xmlns="http://www.w3.org/2000/svg">
<g filter="url(#filter0_dd_532_951)">
<rect x="9" y="6" width="38" height="39" rx="11.6857" fill="#2A2A2A"/>
<rect x="9.73036" y="6.73036" width="36.5393" height="37.5393" rx="10.9554" stroke="#EDEBE2" stroke-width="1.46072"/>
<path d="M33 30.5C31.8 30.5 30.7417 30.1208 29.825 29.3625C28.9083 28.6042 28.3333 27.65 28.1 26.5H22.8C22.6 26.95 22.2917 27.3125 21.875 27.5875C21.4583 27.8625 21 28 20.5 28C19.8 28 19.2083 27.7583 18.725 27.275C18.2417 26.7917 18 26.2 18 25.5C18 24.8 18.2417 24.2083 18.725 23.725C19.2083 23.2417 19.8 23 20.5 23C21 23 21.4583 23.1375 21.875 23.4125C22.2917 23.6875 22.6 24.05 22.8 24.5H28.1C28.3333 23.35 28.9083 22.3958 29.825 21.6375C30.7417 20.8792 31.8 20.5 33 20.5C34.3833 20.5 35.5625 20.9875 36.5375 21.9625C37.5125 22.9375 38 24.1167 38 25.5C38 26.8833 37.5125 28.0625 36.5375 29.0375C35.5625 30.0125 34.3833 30.5 33 30.5ZM33 28.5C33.8333 28.5 34.5417 28.2083 35.125 27.625C35.7083 27.0417 36 26.3333 36 25.5C36 24.6667 35.7083 23.9583 35.125 23.375C34.5417 22.7917 33.8333 22.5 33 22.5C32.1667 22.5 31.4583 22.7917 30.875 23.375C30.2917 23.9583 30 24.6667 30 25.5C30 26.3333 30.2917 27.0417 30.875 27.625C31.4583 28.2083 32.1667 28.5 33 28.5Z" fill="#EDEBE2"/>
</g>
<defs>
<filter id="filter0_dd_532_951" x="0.966062" y="0.887494" width="54.0679" height="55.0679" filterUnits="userSpaceOnUse" color-interpolation-filters="sRGB">
<feFlood flood-opacity="0" result="BackgroundImageFix"/>
<feColorMatrix in="SourceAlpha" type="matrix" values="0 0 0 0 0 0 0 0 0 0 0 0 0 0 0 0 0 0 127 0" result="hardAlpha"/>
<feOffset dy="0.730358"/>
<feGaussianBlur stdDeviation="1.09554"/>
<feColorMatrix type="matrix" values="0 0 0 0 0 0 0 0 0 0 0 0 0 0 0 0 0 0 0.3 0"/>
<feBlend mode="normal" in2="BackgroundImageFix" result="effect1_dropShadow_532_951"/>
<feColorMatrix in="SourceAlpha" type="matrix" values="0 0 0 0 0 0 0 0 0 0 0 0 0 0 0 0 0 0 127 0" result="hardAlpha"/>
<feMorphology radius="2.19107" operator="dilate" in="SourceAlpha" result="effect2_dropShadow_532_951"/>
<feOffset dy="2.92143"/>
<feGaussianBlur stdDeviation="2.92143"/>
<feColorMatrix type="matrix" values="0 0 0 0 0 0 0 0 0 0 0 0 0 0 0 0 0 0 0.15 0"/>
<feBlend mode="normal" in2="effect1_dropShadow_532_951" result="effect2_dropShadow_532_951"/>
<feBlend mode="normal" in="SourceGraphic" in2="effect2_dropShadow_532_951" result="shape"/>
</filter>
</defs>
</svg>
